<?xml version="1.0" standalone="no"?>
<!DOCTYPE svg PUBLIC "-//W3C//DTD SVG 1.1//EN" "http://www.w3.org/Graphics/SVG/1.1/DTD/svg11.dtd">
<svg version="1.1" xmlns="http://www.w3.org/2000/svg" viewBox="0 0 592 572" width="592" height="572"><!-- svg-source:excalidraw --><metadata></metadata><defs><style class="style-fonts">
      </style></defs><g transform="translate(211 554) rotate(0 -46 -271.5)" stroke="none"><path fill="#ffd43b" d="M 0.75,10.60 Q 0.75,10.60 -3.25,11.00 -7.27,11.40 -12.23,11.87 -17.19,12.34 -22.88,12.70 -28.57,13.07 -36.26,12.54 -43.96,12.02 -48.17,11.16 -52.39,10.30 -59.43,6.79 -66.46,3.29 -72.19,-0.49 -77.92,-4.28 -84.62,-9.68 -91.33,-15.08 -95.32,-18.76 -99.31,-22.44 -103.51,-26.99 -107.70,-31.53 -111.77,-36.57 -115.83,-41.60 -119.73,-46.69 -123.63,-51.78 -127.16,-56.73 -130.68,-61.68 -134.18,-67.52 -137.68,-73.35 -140.85,-79.07 -144.03,-84.79 -147.07,-90.81 -150.11,-96.83 -152.87,-102.63 -155.63,-108.44 -158.23,-114.46 -160.83,-120.49 -163.30,-127.27 -165.76,-134.04 -167.95,-140.77 -170.13,-147.49 -172.49,-154.88 -174.85,-162.27 -177.22,-169.86 -179.58,-177.44 -181.84,-185.69 -184.09,-193.94 -186.38,-202.68 -188.66,-211.42 -190.73,-220.42 -192.80,-229.42 -194.78,-239.04 -196.75,-248.66 -198.42,-257.98 -200.09,-267.29 -201.64,-277.04 -203.19,-286.78 -204.13,-296.83 -205.07,-306.88 -205.46,-316.98 -205.84,-327.08 -205.99,-337.98 -206.14,-348.89 -206.19,-359.27 -206.25,-369.65 -206.26,-379.81 -206.28,-389.97 -206.28,-398.89 -206.29,-407.81 -206.28,-416.49 -206.28,-425.17 -206.28,-433.74 -206.27,-442.32 -205.44,-450.85 -204.61,-459.37 -202.90,-467.28 -201.19,-475.19 -199.49,-482.04 -197.80,-488.89 -196.10,-494.62 -194.41,-500.36 -192.32,-505.87 -190.23,-511.38 -187.21,-516.76 -184.18,-522.15 -181.46,-526.16 -178.74,-530.16 -174.84,-533.89 -170.94,-537.62 -167.42,-540.59 -163.90,-543.57 -159.53,-546.17 -155.16,-548.76 -150.77,-550.42 -146.38,-552.07 -141.34,-552.89 -136.31,-553.70 -131.31,-554.02 -126.31,-554.33 -121.32,-554.47 -116.33,-554.60 -110.97,-554.08 -105.61,-553.56 -100.40,-552.40 -95.19,-551.24 -89.29,-549.09 -83.38,-546.94 -78.46,-544.88 -73.54,-542.81 -68.12,-539.60 -62.71,-536.39 -57.18,-532.15 -51.65,-527.92 -46.43,-523.39 -41.21,-518.86 -35.85,-513.51 -30.50,-508.16 -25.16,-502.21 -19.81,-496.27 -14.69,-490.14 -9.57,-484.01 -5.06,-478.95 -0.55,-473.90 4.04,-467.71 8.64,-461.51 13.46,-454.83 18.29,-448.15 23.22,-440.43 28.15,-432.71 32.53,-424.99 36.90,-417.26 41.02,-409.31 45.14,-401.35 49.13,-393.68 53.11,-386.01 56.88,-378.71 60.65,-371.40 63.86,-364.14 67.07,-356.87 70.31,-349.24 73.55,-341.61 76.50,-334.28 79.44,-326.94 81.97,-319.72 84.49,-312.49 86.77,-305.40 89.05,-298.32 91.29,-291.97 93.52,-285.63 95.06,-279.72 96.60,-273.82 98.07,-267.44 99.55,-261.07 100.66,-255.29 101.78,-249.52 102.64,-243.85 103.49,-238.19 104.52,-233.51 105.54,-228.82 106.65,-224.29 107.75,-219.75 108.66,-215.31 109.57,-210.87 111.43,-203.55 113.29,-196.23 114.47,-189.68 115.66,-183.13 116.85,-178.40 118.04,-173.68 119.03,-168.59 120.01,-163.51 119.22,-161.98 118.43,-160.46 119.50,-158.71 120.57,-156.96 121.02,-154.96 121.47,-152.96 121.26,-150.92 121.05,-148.88 120.19,-147.01 119.34,-145.15 117.94,-143.65 116.54,-142.15 114.73,-141.18 112.92,-140.21 110.90,-139.87 108.88,-139.53 106.85,-139.85 104.83,-140.17 103.01,-141.12 101.19,-142.08 99.78,-143.56 98.36,-145.04 97.49,-146.90 96.62,-148.75 96.39,-150.79 96.15,-152.83 96.58,-154.83 97.02,-156.84 98.06,-158.60 99.11,-160.36 100.67,-161.70 102.23,-163.03 104.13,-163.80 106.03,-164.57 108.07,-164.69 110.12,-164.81 112.10,-164.27 114.08,-163.74 115.78,-162.59 117.49,-161.45 118.73,-159.82 119.98,-158.20 120.65,-156.26 121.31,-154.32 121.32,-152.27 121.33,-150.22 120.69,-148.27 120.04,-146.32 118.81,-144.68 117.58,-143.05 115.88,-141.89 114.19,-140.73 112.22,-140.17 110.25,-139.61 108.20,-139.71 106.15,-139.81 104.24,-140.56 102.33,-141.31 100.76,-142.63 99.19,-143.95 99.19,-143.95 99.20,-143.95 97.51,-153.82 95.83,-163.69 95.39,-168.73 94.96,-173.77 94.26,-179.89 93.56,-186.00 92.72,-192.73 91.88,-199.45 90.67,-207.77 89.47,-216.10 88.70,-220.94 87.93,-225.78 87.24,-230.98 86.56,-236.19 86.11,-241.61 85.66,-247.03 85.04,-252.45 84.43,-257.87 83.19,-264.32 81.94,-270.77 81.15,-276.10 80.36,-281.42 78.47,-287.96 76.57,-294.51 74.55,-301.52 72.53,-308.53 70.34,-315.53 68.15,-322.53 65.42,-329.72 62.68,-336.91 59.32,-344.53 55.96,-352.14 53.12,-359.10 50.27,-366.05 46.54,-373.27 42.82,-380.49 38.64,-388.04 34.47,-395.60 30.22,-403.17 25.97,-410.74 21.46,-417.91 16.96,-425.08 11.83,-432.11 6.70,-439.14 1.37,-445.51 -3.95,-451.88 -8.35,-457.46 -12.75,-463.04 -17.24,-468.10 -21.73,-473.16 -26.98,-478.65 -32.22,-484.14 -37.73,-489.30 -43.23,-494.46 -48.53,-499.01 -53.83,-503.55 -58.80,-507.42 -63.76,-511.29 -68.65,-514.65 -73.55,-518.01 -77.79,-520.49 -82.02,-522.97 -86.28,-524.82 -90.54,-526.67 -95.41,-528.32 -100.29,-529.97 -108.13,-531.55 -115.97,-533.13 -120.67,-533.09 -125.36,-533.05 -129.62,-532.95 -133.87,-532.86 -139.94,-532.09 -146.00,-531.32 -152.62,-527.54 -159.24,-523.76 -164.93,-518.73 -170.61,-513.69 -173.54,-509.50 -176.48,-505.31 -178.93,-500.47 -181.39,-495.63 -183.62,-490.54 -185.86,-485.44 -188.00,-478.99 -190.13,-472.54 -192.03,-465.39 -193.92,-458.24 -194.82,-450.28 -195.71,-442.32 -195.70,-433.75 -195.69,-425.17 -195.68,-416.50 -195.66,-407.83 -195.64,-398.92 -195.62,-390.01 -195.57,-379.87 -195.52,-369.73 -195.43,-359.39 -195.33,-349.06 -195.13,-338.30 -194.93,-327.53 -194.49,-317.75 -194.05,-307.96 -193.05,-298.30 -192.05,-288.63 -190.38,-279.04 -188.72,-269.46 -186.88,-260.35 -185.05,-251.24 -182.84,-241.85 -180.63,-232.47 -178.26,-223.81 -175.90,-215.15 -173.16,-206.70 -170.41,-198.24 -167.61,-190.40 -164.80,-182.55 -162.01,-175.25 -159.23,-167.95 -156.25,-160.61 -153.26,-153.28 -150.98,-147.00 -148.71,-140.71 -146.08,-134.48 -143.45,-128.25 -140.84,-122.60 -138.23,-116.95 -135.50,-111.52 -132.76,-106.10 -129.63,-100.57 -126.50,-95.04 -123.28,-89.83 -120.06,-84.61 -116.62,-79.60 -113.19,-74.59 -109.86,-70.26 -106.54,-65.93 -102.44,-61.37 -98.35,-56.80 -94.42,-52.64 -90.49,-48.49 -86.71,-44.93 -82.92,-41.37 -75.83,-35.68 -68.74,-29.99 -63.22,-26.08 -57.70,-22.17 -52.22,-18.47 -46.74,-14.78 -42.15,-13.55 -37.56,-12.32 -33.09,-11.70 -28.63,-11.08 -23.15,-10.79 -17.68,-10.50 -13.25,-10.37 -8.82,-10.25 -4.79,-10.42 -0.75,-10.60 0.52,-10.53 1.80,-10.47 3.02,-10.10 4.25,-9.73 5.36,-9.08 6.46,-8.43 7.37,-7.54 8.29,-6.64 8.97,-5.55 9.64,-4.46 10.03,-3.24 10.43,-2.02 10.52,-0.75 10.61,0.52 10.39,1.78 10.18,3.05 9.66,4.22 9.15,5.40 8.37,6.41 7.59,7.43 6.59,8.23 5.59,9.03 4.43,9.57 3.27,10.11 2.01,10.35 0.75,10.60 0.75,10.60 L 0.75,10.60 Z"></path></g><g transform="translate(298 311) rotate(0 79.5 -20.5)" stroke="none"><path fill="#ffd43b" d="M -9.98,2.85 Q -9.98,2.85 -11.24,-1.13 -12.51,-5.12 -15.19,-11.74 -17.87,-18.36 -20.64,-24.95 -23.42,-31.53 -24.86,-35.75 -26.31,-39.97 -27.68,-44.09 -29.04,-48.21 -30.47,-52.55 -31.91,-56.89 -33.55,-61.84 -35.19,-66.78 -36.95,-72.48 -38.72,-78.17 -40.06,-84.88 -41.41,-91.60 -42.72,-97.26 -44.04,-102.92 -45.22,-108.73 -46.40,-114.54 -47.66,-120.30 -48.92,-126.05 -49.55,-132.65 -50.18,-139.24 -50.51,-144.60 -50.83,-149.95 -50.97,-155.43 -51.10,-160.91 -51.22,-165.82 -51.34,-170.72 -51.47,-175.12 -51.59,-179.51 -51.08,-184.42 -50.57,-189.33 -49.41,-194.11 -48.25,-198.88 -46.45,-203.40 -44.65,-207.91 -42.78,-212.00 -40.90,-216.10 -38.21,-220.14 -35.52,-224.18 -31.65,-227.72 -27.79,-231.26 -20.50,-236.19 -13.21,-241.11 -8.45,-243.18 -3.68,-245.26 0.62,-247.11 4.94,-248.96 11.03,-250.32 17.13,-251.69 21.52,-252.90 25.92,-254.11 31.71,-255.03 37.51,-255.95 42.46,-256.61 47.40,-257.28 52.75,-257.57 58.11,-257.87 63.55,-257.94 68.99,-258.01 73.87,-258.06 78.76,-258.12 84.00,-258.10 89.25,-258.07 94.06,-258.10 98.88,-258.12 104.39,-257.79 109.91,-257.46 114.37,-257.10 118.84,-256.74 124.18,-255.60 129.52,-254.47 134.90,-252.70 140.28,-250.94 145.23,-248.99 150.18,-247.05 155.45,-244.68 160.73,-242.31 166.81,-238.59 172.90,-234.87 178.16,-231.19 183.42,-227.51 188.24,-223.41 193.05,-219.31 197.27,-215.68 201.48,-212.04 206.07,-207.29 210.65,-202.54 214.79,-197.39 218.93,-192.23 222.55,-186.59 226.17,-180.96 229.36,-175.78 232.55,-170.61 235.67,-165.13 238.78,-159.65 241.61,-154.39 244.44,-149.12 247.30,-142.61 250.16,-136.10 252.92,-128.89 255.67,-121.69 257.98,-114.01 260.28,-106.33 262.79,-99.34 265.31,-92.36 267.56,-84.74 269.82,-77.13 271.72,-70.12 273.62,-63.11 275.49,-55.86 277.36,-48.61 279.34,-41.88 281.32,-35.16 283.15,-28.77 284.98,-22.38 286.24,-16.21 287.50,-10.03 288.67,-4.43 289.83,1.16 290.78,6.26 291.73,11.36 292.22,17.01 292.70,22.66 292.98,27.92 293.25,33.19 293.40,38.60 293.55,44.00 293.67,49.18 293.79,54.35 293.59,59.71 293.40,65.07 292.40,70.79 291.40,76.51 290.09,82.03 288.77,87.55 287.75,92.15 286.72,96.75 285.00,101.81 283.29,106.87 281.41,111.61 279.53,116.36 276.33,121.65 273.14,126.93 270.54,131.17 267.93,135.41 265.41,139.53 262.89,143.66 259.06,148.29 255.22,152.92 251.60,156.86 247.98,160.79 243.83,164.50 239.68,168.21 235.32,171.73 230.96,175.25 225.91,178.65 220.85,182.05 215.55,185.36 210.25,188.68 204.07,191.70 197.89,194.73 191.61,197.18 185.33,199.62 179.20,201.76 173.07,203.90 166.45,205.69 159.84,207.47 153.11,209.22 146.38,210.96 139.28,212.09 132.19,213.23 125.55,213.75 118.90,214.27 112.61,214.51 106.31,214.75 100.48,214.91 94.64,215.08 89.57,215.26 84.50,215.44 79.18,215.55 73.86,215.65 69.01,215.78 64.16,215.91 59.23,216.01 54.29,216.11 48.73,215.85 43.17,215.60 37.33,214.23 31.48,212.86 25.76,210.70 20.03,208.54 14.79,205.67 9.55,202.80 5.05,200.31 0.55,197.82 -4.50,194.05 -9.55,190.27 -13.92,187.20 -18.29,184.12 -23.28,179.37 -28.26,174.61 -33.00,169.75 -37.73,164.88 -42.43,159.37 -47.14,153.87 -50.99,149.25 -54.84,144.63 -58.84,138.57 -62.83,132.52 -67.02,126.74 -71.21,120.96 -75.23,113.92 -79.25,106.89 -83.03,99.55 -86.81,92.21 -90.58,84.02 -94.36,75.83 -97.95,68.73 -101.53,61.62 -104.70,55.06 -107.87,48.50 -110.56,42.88 -113.25,37.26 -115.67,32.04 -118.10,26.82 -120.33,22.90 -122.56,18.99 -124.23,14.66 -125.89,10.32 -128.52,5.64 -131.14,0.95 -132.73,-3.74 -134.32,-8.43 -134.87,-9.68 -135.41,-10.92 -135.57,-12.67 -135.72,-14.42 -135.31,-16.13 -134.90,-17.83 -133.96,-19.32 -133.02,-20.81 -131.66,-21.92 -130.30,-23.03 -128.66,-23.64 -127.01,-24.26 -125.26,-24.32 -123.50,-24.38 -121.82,-23.87 -120.14,-23.37 -118.70,-22.35 -117.27,-21.34 -116.24,-19.92 -115.20,-18.50 -114.68,-16.82 -114.15,-15.15 -114.19,-13.39 -114.22,-11.63 -114.82,-9.98 -115.41,-8.33 -116.50,-6.95 -117.60,-5.58 -119.07,-4.62 -120.54,-3.67 -122.24,-3.23 -123.95,-2.80 -125.70,-2.93 -127.45,-3.06 -129.07,-3.74 -130.68,-4.43 -132.00,-5.59 -133.31,-6.76 -134.19,-8.28 -135.06,-9.80 -135.40,-11.52 -135.75,-13.25 -135.52,-14.99 -135.29,-16.73 -134.52,-18.31 -133.75,-19.89 -132.52,-21.14 -131.29,-22.39 -129.72,-23.18 -128.15,-23.97 -126.41,-24.22 -124.67,-24.46 -122.95,-24.14 -121.22,-23.82 -119.68,-22.97 -118.15,-22.11 -116.97,-20.82 -115.79,-19.52 -115.08,-17.91 -114.38,-16.30 -114.38,-16.30 -114.38,-16.30 -113.87,-13.94 -113.35,-11.58 -112.48,-6.73 -111.61,-1.88 -109.45,4.84 -107.29,11.56 -105.36,16.15 -103.44,20.74 -101.50,26.04 -99.56,31.35 -97.38,36.97 -95.21,42.60 -92.35,48.97 -89.50,55.34 -85.67,62.42 -81.84,69.51 -77.64,77.11 -73.44,84.71 -69.28,91.53 -65.12,98.35 -61.27,104.34 -57.42,110.32 -52.57,116.24 -47.72,122.16 -43.98,127.39 -40.24,132.63 -36.71,136.98 -33.19,141.34 -28.65,146.13 -24.11,150.91 -19.26,155.38 -14.42,159.85 -10.41,163.53 -6.39,167.21 -1.76,170.45 2.86,173.69 6.82,176.67 10.77,179.64 15.28,182.21 19.79,184.78 23.58,187.04 27.37,189.30 35.87,192.27 44.37,195.24 49.32,195.56 54.28,195.87 59.21,195.96 64.14,196.06 68.97,196.17 73.80,196.29 79.09,196.37 84.37,196.44 89.37,196.55 94.37,196.66 100.05,196.66 105.73,196.65 111.64,196.49 117.56,196.34 123.40,195.93 129.25,195.52 135.31,194.46 141.38,193.39 148.02,191.33 154.66,189.26 160.56,187.49 166.46,185.71 172.20,183.54 177.94,181.37 183.35,179.08 188.76,176.79 193.85,174.08 198.94,171.37 203.92,167.96 208.90,164.55 213.16,161.59 217.41,158.64 221.43,155.32 225.44,152.00 228.83,149.09 232.21,146.17 235.49,142.65 238.77,139.13 241.71,135.68 244.65,132.24 247.23,128.18 249.82,124.12 252.47,119.93 255.12,115.75 257.51,112.02 259.90,108.29 261.70,104.02 263.51,99.75 265.04,95.77 266.58,91.79 267.79,87.28 269.00,82.77 270.24,77.70 271.49,72.62 272.45,68.29 273.42,63.95 273.77,59.19 274.13,54.43 274.21,49.32 274.28,44.20 274.32,38.93 274.35,33.66 274.37,28.69 274.39,23.71 274.27,18.79 274.15,13.87 273.67,9.00 273.19,4.12 272.35,-1.57 271.50,-7.28 270.74,-12.82 269.99,-18.37 268.41,-24.66 266.84,-30.96 264.87,-37.85 262.91,-44.74 260.90,-51.94 258.90,-59.15 257.11,-65.85 255.32,-72.55 252.94,-79.61 250.56,-86.66 247.58,-93.90 244.60,-101.14 242.09,-108.00 239.58,-114.85 236.44,-121.55 233.29,-128.25 230.37,-134.15 227.45,-140.05 224.80,-145.06 222.14,-150.06 219.12,-155.23 216.10,-160.39 212.98,-165.37 209.86,-170.35 206.75,-175.07 203.63,-179.79 200.04,-184.13 196.44,-188.48 192.30,-192.54 188.16,-196.60 184.02,-200.17 179.87,-203.74 175.86,-207.12 171.84,-210.50 167.14,-213.60 162.44,-216.70 157.25,-219.46 152.06,-222.22 147.06,-224.28 142.05,-226.34 137.70,-228.05 133.34,-229.75 129.00,-231.17 124.66,-232.58 116.68,-233.98 108.70,-235.37 103.81,-235.61 98.92,-235.85 94.13,-235.85 89.34,-235.85 84.16,-235.79 78.99,-235.72 74.24,-235.68 69.49,-235.63 64.43,-235.47 59.37,-235.30 54.91,-235.05 50.45,-234.80 45.83,-234.16 41.21,-233.52 36.67,-232.74 32.14,-231.95 23.19,-229.70 14.25,-227.44 6.45,-224.08 -1.33,-220.72 -7.13,-217.08 -12.94,-213.44 -16.73,-209.92 -20.52,-206.39 -23.76,-199.74 -27.01,-193.09 -28.67,-186.33 -30.34,-179.58 -30.43,-175.25 -30.52,-170.92 -30.55,-166.11 -30.58,-161.31 -30.50,-156.13 -30.43,-150.94 -30.26,-146.08 -30.09,-141.21 -29.56,-135.95 -29.02,-130.69 -27.54,-124.78 -26.07,-118.86 -24.87,-113.45 -23.66,-108.05 -22.08,-102.19 -20.50,-96.33 -19.08,-90.82 -17.66,-85.32 -15.62,-79.85 -13.59,-74.38 -11.70,-69.29 -9.82,-64.21 -8.36,-59.84 -6.91,-55.47 -4.61,-48.04 -2.32,-40.62 0.47,-32.99 3.27,-25.36 5.59,-18.16 7.91,-10.97 8.94,-6.91 9.98,-2.85 10.17,-1.61 10.37,-0.38 10.26,0.86 10.16,2.11 9.76,3.29 9.36,4.48 8.69,5.54 8.01,6.59 7.11,7.45 6.20,8.32 5.12,8.94 4.03,9.56 2.83,9.90 1.62,10.25 0.37,10.29 -0.87,10.34 -2.09,10.09 -3.32,9.83 -4.45,9.29 -5.58,8.75 -6.54,7.95 -7.51,7.16 -8.26,6.16 -9.01,5.15 -9.49,4.00 -9.98,2.85 -9.98,2.85 L -9.98,2.85 Z"></path></g><g transform="translate(195 562) rotate(0 63.5 -26.5)" stroke="none"><path fill="#ffd43b" d="M -2.40,-10.43 Q -2.40,-10.43 1.30,-11.41 5.01,-12.39 9.88,-13.88 14.76,-15.37 20.96,-17.98 27.16,-20.59 31.48,-21.91 35.80,-23.23 41.33,-25.70 46.86,-28.18 51.43,-29.92 56.00,-31.65 61.60,-33.97 67.20,-36.29 72.49,-38.15 77.79,-40.02 82.00,-41.85 86.20,-43.68 91.94,-46.75 97.68,-49.82 103.22,-53.40 108.75,-56.97 114.55,-61.17 120.35,-65.37 122.53,-66.02 124.71,-66.66 126.98,-66.58 129.25,-66.50 131.37,-65.69 133.49,-64.89 135.25,-63.45 137.00,-62.01 138.21,-60.08 139.41,-58.16 139.94,-55.95 140.47,-53.74 140.26,-51.48 140.05,-49.22 139.14,-47.14 138.22,-45.06 136.68,-43.39 135.15,-41.71 133.16,-40.62 131.18,-39.52 128.94,-39.11 126.71,-38.71 124.46,-39.04 122.21,-39.36 120.19,-40.39 118.17,-41.42 116.58,-43.04 114.99,-44.66 114.00,-46.71 113.01,-48.75 112.73,-51.01 112.44,-53.26 112.89,-55.48 113.34,-57.71 114.48,-59.67 115.62,-61.64 117.32,-63.14 119.03,-64.64 121.12,-65.52 123.21,-66.39 125.48,-66.55 127.74,-66.72 129.94,-66.15 132.14,-65.58 134.04,-64.33 135.94,-63.09 137.35,-61.31 138.75,-59.52 139.51,-57.39 140.28,-55.25 140.31,-52.98 140.35,-50.71 139.67,-48.54 138.98,-46.38 137.63,-44.55 136.29,-42.72 134.43,-41.41 132.58,-40.10 132.58,-40.10 132.58,-40.11 132.11,-40.14 131.65,-40.17 127.34,-36.74 123.04,-33.31 118.50,-30.36 113.96,-27.41 109.73,-25.31 105.50,-23.22 100.40,-20.62 95.31,-18.02 90.23,-16.01 85.15,-14.00 79.68,-12.16 74.22,-10.33 68.74,-8.37 63.27,-6.40 58.17,-4.81 53.08,-3.22 47.88,-1.21 42.68,0.80 36.74,2.15 30.81,3.51 25.36,5.28 19.90,7.05 14.92,8.00 9.93,8.94 6.17,9.69 2.40,10.43 1.12,10.57 -0.15,10.71 -1.43,10.53 -2.71,10.36 -3.91,9.88 -5.11,9.40 -6.17,8.66 -7.22,7.91 -8.06,6.93 -8.90,5.95 -9.48,4.80 -10.07,3.64 -10.36,2.39 -10.65,1.13 -10.63,-0.15 -10.61,-1.44 -10.28,-2.69 -9.95,-3.94 -9.34,-5.08 -8.72,-6.21 -7.85,-7.16 -6.98,-8.12 -5.90,-8.84 -4.83,-9.55 -3.62,-9.99 -2.40,-10.43 -2.40,-10.43 L -2.40,-10.43 Z"></path></g><g transform="translate(476.52789326184393 126.77781331133656) rotate(0 29.5 88.5)" stroke="none"><path fill="#ffd43b" d="M 9.58,-4.25 Q 9.58,-4.25 10.88,-1.73 12.18,0.77 14.36,4.52 16.54,8.27 20.26,13.82 23.98,19.38 26.52,24.28 29.06,29.18 31.58,33.38 34.10,37.59 35.90,41.77 37.69,45.96 39.72,50.21 41.75,54.47 43.67,59.46 45.58,64.45 47.47,68.56 49.37,72.67 51.06,77.45 52.75,82.22 54.49,87.03 56.23,91.84 57.55,95.95 58.87,100.07 60.44,107.22 62.02,114.37 63.28,119.21 64.54,124.04 65.87,129.15 67.21,134.25 68.10,139.33 69.00,144.41 69.60,149.85 70.21,155.29 71.34,160.44 72.46,165.60 73.12,170.84 73.77,176.09 73.45,178.46 73.13,180.83 72.07,182.98 71.01,185.13 69.32,186.82 67.63,188.52 65.49,189.58 63.35,190.65 60.98,190.98 58.61,191.31 56.25,190.86 53.90,190.41 51.82,189.24 49.73,188.06 48.13,186.28 46.53,184.50 45.58,182.31 44.63,180.11 44.43,177.72 44.23,175.34 44.81,173.01 45.38,170.69 46.66,168.67 47.95,166.65 49.81,165.15 51.68,163.65 53.92,162.82 56.17,161.99 58.56,161.92 60.95,161.85 63.24,162.55 65.53,163.25 67.48,164.64 69.43,166.03 70.83,167.98 72.23,169.92 72.93,172.21 73.64,174.49 73.58,176.89 73.52,179.28 72.70,181.53 71.87,183.78 70.38,185.64 68.88,187.51 66.86,188.81 64.85,190.10 62.53,190.68 60.20,191.26 57.82,191.07 55.43,190.88 53.23,189.94 51.03,188.99 49.25,187.40 47.46,185.80 46.28,183.72 45.10,181.64 44.64,179.29 44.19,176.94 44.19,176.94 44.19,176.94 44.92,177.00 45.65,177.05 44.58,172.74 43.51,168.42 42.39,162.04 41.27,155.67 40.75,150.43 40.23,145.20 38.71,139.18 37.19,133.15 35.72,127.86 34.25,122.56 33.30,117.31 32.36,112.05 30.89,107.03 29.43,102.01 27.58,96.64 25.74,91.28 24.14,86.02 22.54,80.76 20.72,76.69 18.90,72.62 17.36,68.02 15.82,63.42 13.71,58.40 11.59,53.38 9.84,48.39 8.08,43.39 6.01,38.76 3.94,34.13 1.91,30.11 -0.12,26.09 -2.14,22.25 -4.16,18.41 -5.87,13.99 -7.58,9.57 -8.58,6.91 -9.58,4.25 -9.95,3.04 -10.32,1.84 -10.39,0.57 -10.46,-0.68 -10.22,-1.92 -9.99,-3.16 -9.47,-4.31 -8.94,-5.46 -8.16,-6.45 -7.37,-7.44 -6.37,-8.22 -5.38,-8.99 -4.22,-9.51 -3.07,-10.02 -1.82,-10.24 -0.58,-10.46 0.67,-10.38 1.93,-10.30 3.14,-9.92 4.34,-9.54 5.42,-8.88 6.50,-8.22 7.39,-7.32 8.28,-6.42 8.93,-5.34 9.58,-4.25 9.58,-4.25 L 9.58,-4.25 Z"></path></g><g transform="translate(547 339) rotate(0 2 10)" stroke="none"><path fill="#ffd43b" d="M 9.47,-3.15 Q 9.47,-3.15 10.52,-0.63 11.56,1.88 13.20,6.54 14.84,11.20 15.17,15.43 15.49,19.66 15.19,21.50 14.89,23.33 14.02,24.98 13.16,26.62 11.81,27.90 10.46,29.18 8.77,29.97 7.08,30.75 5.24,30.95 3.39,31.16 1.57,30.76 -0.24,30.36 -1.83,29.41 -3.43,28.45 -4.63,27.03 -5.84,25.62 -6.53,23.89 -7.22,22.16 -7.32,20.31 -7.42,18.45 -6.93,16.66 -6.43,14.87 -5.39,13.32 -4.35,11.78 -2.87,10.66 -1.39,9.53 0.36,8.93 2.12,8.34 3.98,8.34 5.84,8.33 7.60,8.92 9.37,9.52 10.85,10.64 12.33,11.76 13.38,13.30 14.42,14.84 14.92,16.63 15.42,18.42 15.32,20.28 15.22,22.14 14.54,23.87 13.85,25.59 12.65,27.01 11.45,28.43 9.85,29.39 8.26,30.35 6.45,30.75 4.63,31.16 2.78,30.96 0.93,30.76 -0.75,29.98 -2.44,29.20 -3.79,27.92 -5.14,26.65 -6.01,25.00 -6.88,23.36 -7.19,21.53 -7.49,19.69 -7.49,19.69 -7.49,19.69 -7.80,14.08 -8.11,8.46 -8.79,5.81 -9.47,3.15 -9.71,1.97 -9.95,0.79 -9.90,-0.40 -9.85,-1.60 -9.52,-2.76 -9.18,-3.91 -8.58,-4.96 -7.98,-6.00 -7.14,-6.87 -6.31,-7.73 -5.29,-8.38 -4.27,-9.02 -3.13,-9.40 -1.99,-9.78 -0.79,-9.88 0.40,-9.97 1.59,-9.78 2.78,-9.59 3.89,-9.11 4.99,-8.64 5.95,-7.92 6.92,-7.19 7.68,-6.26 8.44,-5.33 8.95,-4.24 9.47,-3.15 9.47,-3.15 L 9.47,-3.15 Z"></path></g><g transform="translate(551 387) rotate(0 0.00004999999998744897 0.00004999999998744897)" stroke="none"><path fill="#ffd43b" d="M 6.28,-6.28 Q 6.28,-6.28 7.11,-5.11 7.95,-3.94 8.37,-2.57 8.80,-1.19 8.76,0.23 8.72,1.67 8.22,3.02 7.73,4.37 6.83,5.49 5.93,6.61 4.72,7.38 3.50,8.15 2.11,8.50 0.72,8.85 -0.71,8.73 -2.14,8.61 -3.46,8.05 -4.78,7.48 -5.85,6.52 -6.92,5.56 -7.63,4.31 -8.33,3.06 -8.60,1.65 -8.87,0.23 -8.68,-1.18 -8.49,-2.60 -7.85,-3.89 -7.21,-5.18 -6.19,-6.19 -5.18,-7.21 -3.89,-7.85 -2.60,-8.49 -1.18,-8.68 0.24,-8.87 1.65,-8.60 3.06,-8.33 4.31,-7.62 5.56,-6.92 6.52,-5.85 7.48,-4.78 8.05,-3.46 8.62,-2.14 8.73,-0.70 8.85,0.72 8.50,2.11 8.15,3.51 7.38,4.72 6.61,5.93 5.48,6.83 4.36,7.73 3.02,8.22 1.67,8.72 0.23,8.76 -1.20,8.80 -2.57,8.37 -3.94,7.95 -5.11,7.11 -6.28,6.27 -6.28,6.27 -6.28,6.28 -6.94,5.43 -7.60,4.59 -8.04,3.61 -8.48,2.64 -8.67,1.58 -8.86,0.53 -8.80,-0.53 -8.73,-1.60 -8.41,-2.62 -8.09,-3.64 -7.54,-4.56 -6.99,-5.47 -6.23,-6.23 -5.47,-6.99 -4.56,-7.54 -3.64,-8.10 -2.62,-8.41 -1.60,-8.73 -0.53,-8.80 0.53,-8.86 1.59,-8.67 2.64,-8.48 3.61,-8.04 4.59,-7.60 5.43,-6.94 6.28,-6.28 6.28,-6.28 L 6.28,-6.28 Z"></path></g><g transform="translate(171.33343993400968 361) rotate(0 28 50.5)" stroke="none"><path fill="#ffd43b" d="M 10.00,-2.50 Q 10.00,-2.50 11.02,0.90 12.04,4.31 13.95,8.54 15.85,12.76 18.13,17.07 20.42,21.38 22.22,25.42 24.01,29.45 26.96,34.80 29.90,40.15 31.84,44.15 33.77,48.15 36.22,52.78 38.66,57.42 41.01,60.98 43.35,64.55 46.95,68.42 50.55,72.30 53.73,76.41 56.91,80.52 60.25,83.71 63.59,86.90 66.59,91.07 69.58,95.24 70.10,97.57 70.63,99.89 70.38,102.27 70.13,104.64 69.14,106.81 68.15,108.98 66.51,110.72 64.88,112.46 62.78,113.59 60.67,114.72 58.32,115.11 55.97,115.51 53.61,115.14 51.25,114.76 49.14,113.65 47.03,112.54 45.38,110.82 43.73,109.09 42.72,106.93 41.70,104.77 41.44,102.40 41.17,100.03 41.67,97.69 42.17,95.36 43.39,93.31 44.62,91.26 46.43,89.71 48.24,88.15 50.45,87.26 52.67,86.37 55.05,86.23 57.43,86.09 59.73,86.72 62.04,87.34 64.02,88.68 66.00,90.01 67.45,91.90 68.90,93.79 69.67,96.05 70.45,98.31 70.46,100.70 70.47,103.08 69.72,105.35 68.96,107.61 67.53,109.52 66.09,111.43 64.12,112.77 62.15,114.12 59.85,114.77 57.56,115.42 55.17,115.30 52.79,115.18 50.57,114.31 48.35,113.43 46.52,111.89 44.70,110.36 43.46,108.32 42.22,106.28 42.22,106.28 42.22,106.28 43.77,107.43 45.33,108.57 41.76,105.20 38.20,101.83 34.45,97.35 30.70,92.88 27.40,88.90 24.10,84.93 21.41,80.91 18.71,76.89 16.20,72.98 13.69,69.07 11.78,64.94 9.87,60.81 8.24,55.80 6.61,50.80 3.55,44.81 0.50,38.83 -1.24,33.63 -2.98,28.42 -4.59,23.94 -6.21,19.46 -7.40,14.47 -8.59,9.48 -9.30,5.99 -10.00,2.50 -10.16,1.26 -10.31,0.03 -10.16,-1.20 -10.02,-2.43 -9.58,-3.59 -9.14,-4.76 -8.44,-5.78 -7.74,-6.81 -6.81,-7.64 -5.88,-8.47 -4.78,-9.05 -3.68,-9.63 -2.48,-9.93 -1.27,-10.23 -0.03,-10.24 1.21,-10.24 2.41,-9.95 3.62,-9.65 4.72,-9.08 5.83,-8.50 6.76,-7.68 7.69,-6.86 8.40,-5.84 9.11,-4.82 9.56,-3.66 10.00,-2.50 10.00,-2.50 L 10.00,-2.50 Z"></path></g><g transform="translate(245 484) rotate(0 2.5 2.5)" stroke="none"><path fill="#ffd43b" d="M 6.54,-6.54 Q 6.54,-6.54 7.26,-6.04 7.98,-5.53 8.69,-4.62 9.40,-3.72 9.87,-2.67 10.34,-1.62 10.55,-0.48 10.76,0.64 10.69,1.79 10.62,2.94 10.28,4.04 9.93,5.14 9.34,6.13 8.74,7.11 7.93,7.93 7.11,8.74 6.12,9.34 5.14,9.93 4.04,10.28 2.94,10.62 1.79,10.69 0.64,10.76 -0.48,10.55 -1.62,10.34 -2.67,9.87 -3.72,9.40 -4.63,8.69 -5.53,7.97 -6.43,6.72 -7.34,5.46 -7.79,3.99 -8.24,2.51 -8.20,0.96 -8.16,-0.57 -7.63,-2.03 -7.09,-3.48 -6.12,-4.68 -5.16,-5.89 -3.85,-6.72 -2.55,-7.55 -1.05,-7.93 0.44,-8.30 1.98,-8.17 3.52,-8.05 4.94,-7.44 6.37,-6.83 7.52,-5.79 8.67,-4.76 9.43,-3.41 10.19,-2.07 10.48,-0.55 10.77,0.96 10.56,2.49 10.35,4.02 9.67,5.41 8.98,6.79 7.89,7.89 6.79,8.98 5.41,9.67 4.02,10.35 2.49,10.56 0.96,10.77 -0.55,10.48 -2.07,10.19 -3.42,9.43 -4.76,8.67 -5.79,7.51 -6.83,6.36 -7.44,4.94 -8.05,3.52 -8.17,1.98 -8.30,0.44 -7.93,-1.05 -7.55,-2.55 -6.72,-3.85 -5.89,-5.16 -4.68,-6.13 -3.47,-7.09 -2.02,-7.63 -0.57,-8.16 0.96,-8.20 2.51,-8.24 3.99,-7.79 5.47,-7.33 6.72,-6.43 7.98,-5.53 7.98,-5.53 7.97,-5.53 8.69,-4.63 9.40,-3.72 9.87,-2.67 10.34,-1.62 10.55,-0.48 10.76,0.64 10.69,1.79 10.62,2.94 10.28,4.04 9.93,5.14 9.34,6.12 8.74,7.11 7.93,7.93 7.11,8.74 6.13,9.34 5.14,9.93 4.04,10.28 2.94,10.62 1.79,10.69 0.64,10.76 -0.48,10.55 -1.62,10.34 -2.67,9.87 -3.72,9.40 -4.62,8.69 -5.53,7.98 -6.04,7.26 -6.54,6.54 -7.23,5.67 -7.92,4.79 -8.38,3.77 -8.84,2.75 -9.04,1.65 -9.24,0.55 -9.17,-0.55 -9.11,-1.66 -8.77,-2.73 -8.44,-3.80 -7.86,-4.75 -7.29,-5.71 -6.50,-6.50 -5.71,-7.29 -4.75,-7.86 -3.80,-8.44 -2.73,-8.77 -1.66,-9.11 -0.55,-9.17 0.55,-9.24 1.65,-9.04 2.75,-8.84 3.77,-8.38 4.79,-7.92 5.67,-7.23 6.55,-6.54 6.55,-6.54 L 6.54,-6.54 Z"></path></g><g transform="translate(120.08351988451682 48.86101339382452) rotate(0 59.5 102.5)" stroke="none"><path fill="#ffd43b" d="M 9.44,-3.54 Q 9.44,-3.54 10.48,-1.30 11.51,0.92 13.91,4.59 16.31,8.26 20.20,13.00 24.08,17.74 28.02,21.14 31.95,24.54 35.20,27.64 38.46,30.74 41.95,33.83 45.45,36.91 48.84,40.78 52.23,44.64 56.05,48.71 59.88,52.78 62.84,56.14 65.80,59.49 68.79,63.98 71.77,68.46 74.00,72.66 76.23,76.85 78.31,80.86 80.39,84.88 82.88,88.78 85.37,92.69 87.08,96.95 88.78,101.22 90.72,105.56 92.66,109.91 94.59,113.78 96.51,117.64 97.98,122.12 99.45,126.60 101.96,132.43 104.47,138.27 106.76,142.63 109.06,146.98 111.52,151.39 113.97,155.79 115.71,159.81 117.45,163.83 119.43,168.23 121.41,172.64 123.44,176.47 125.46,180.31 127.10,184.81 128.74,189.30 130.41,192.96 132.08,196.63 133.02,198.96 133.96,201.29 134.10,203.80 134.25,206.31 133.59,208.73 132.92,211.15 131.52,213.24 130.12,215.32 128.13,216.85 126.13,218.38 123.75,219.19 121.38,220.00 118.87,220.01 116.35,220.02 113.97,219.22 111.59,218.43 109.58,216.92 107.58,215.41 106.16,213.33 104.74,211.26 104.06,208.84 103.38,206.42 103.51,203.91 103.63,201.41 104.55,199.07 105.48,196.73 107.09,194.81 108.71,192.89 110.86,191.59 113.01,190.28 115.46,189.74 117.91,189.19 120.41,189.45 122.91,189.71 125.19,190.76 127.47,191.80 129.30,193.53 131.13,195.25 132.32,197.46 133.50,199.68 133.92,202.15 134.33,204.63 133.94,207.11 133.54,209.59 132.37,211.81 131.20,214.04 129.38,215.77 127.57,217.51 125.29,218.57 123.01,219.63 120.52,219.91 118.02,220.19 115.57,219.66 113.11,219.13 110.96,217.84 108.80,216.56 107.17,214.65 105.53,212.74 105.53,212.74 105.54,212.74 106.61,212.39 107.68,212.03 104.44,207.05 101.21,202.07 98.84,196.78 96.48,191.49 94.45,186.87 92.43,182.25 90.48,176.71 88.52,171.16 85.05,165.67 81.57,160.17 79.40,155.35 77.23,150.53 75.43,146.32 73.63,142.12 71.68,136.62 69.74,131.13 67.80,127.09 65.85,123.04 63.79,118.28 61.72,113.51 59.97,109.09 58.23,104.67 55.67,100.39 53.12,96.11 51.00,91.77 48.88,87.43 45.80,81.96 42.72,76.49 39.06,71.29 35.41,66.09 32.33,62.37 29.25,58.65 24.73,54.39 20.22,50.13 17.19,47.09 14.15,44.05 11.11,39.96 8.07,35.88 5.05,31.88 2.02,27.89 -0.94,23.14 -3.91,18.40 -5.99,13.33 -8.06,8.27 -8.75,5.90 -9.44,3.54 -9.72,2.35 -10.01,1.17 -10.01,-0.03 -10.00,-1.25 -9.71,-2.43 -9.41,-3.61 -8.84,-4.68 -8.27,-5.76 -7.46,-6.66 -6.65,-7.57 -5.65,-8.26 -4.65,-8.94 -3.51,-9.37 -2.37,-9.80 -1.16,-9.94 0.03,-10.08 1.24,-9.93 2.45,-9.78 3.58,-9.34 4.72,-8.91 5.71,-8.21 6.71,-7.52 7.51,-6.61 8.32,-5.69 8.88,-4.61 9.44,-3.54 9.44,-3.54 L 9.44,-3.54 Z"></path></g><g transform="translate(260 285) rotate(0 0.00004999999998744897 0.00004999999998744897)" stroke="none"><path fill="#ffd43b" d="M 6.28,-6.28 Q 6.28,-6.28 7.11,-5.11 7.95,-3.94 8.37,-2.57 8.80,-1.19 8.76,0.23 8.72,1.67 8.22,3.02 7.73,4.37 6.83,5.49 5.93,6.61 4.72,7.38 3.50,8.15 2.11,8.50 0.72,8.85 -0.71,8.73 -2.14,8.61 -3.46,8.05 -4.78,7.48 -5.85,6.52 -6.92,5.56 -7.63,4.31 -8.33,3.06 -8.60,1.65 -8.87,0.23 -8.68,-1.18 -8.49,-2.60 -7.85,-3.89 -7.21,-5.18 -6.19,-6.19 -5.18,-7.21 -3.89,-7.85 -2.60,-8.49 -1.18,-8.68 0.24,-8.87 1.65,-8.60 3.06,-8.33 4.31,-7.62 5.56,-6.92 6.52,-5.85 7.48,-4.78 8.05,-3.46 8.62,-2.14 8.73,-0.70 8.85,0.72 8.50,2.11 8.15,3.51 7.38,4.72 6.61,5.93 5.48,6.83 4.36,7.73 3.02,8.22 1.67,8.72 0.23,8.76 -1.20,8.80 -2.57,8.37 -3.94,7.95 -5.11,7.11 -6.28,6.27 -6.28,6.27 -6.28,6.28 -6.94,5.43 -7.60,4.59 -8.04,3.61 -8.48,2.64 -8.67,1.58 -8.86,0.53 -8.80,-0.53 -8.73,-1.60 -8.41,-2.62 -8.09,-3.64 -7.54,-4.56 -6.99,-5.47 -6.23,-6.23 -5.47,-6.99 -4.56,-7.54 -3.64,-8.10 -2.62,-8.41 -1.60,-8.73 -0.53,-8.80 0.53,-8.86 1.59,-8.67 2.64,-8.48 3.61,-8.04 4.59,-7.60 5.43,-6.94 6.28,-6.28 6.28,-6.28 L 6.28,-6.28 Z"></path></g><g transform="translate(274 315.30538677115146) rotate(0 4.5 13)" stroke="none"><path fill="#ffd43b" d="M 9.10,-3.90 Q 9.10,-3.90 10.14,-1.96 11.18,-0.02 13.05,5.30 14.92,10.63 16.89,15.27 18.86,19.91 19.62,20.78 20.39,21.65 20.75,23.59 21.10,25.54 20.82,27.49 20.54,29.44 19.64,31.20 18.75,32.96 17.35,34.34 15.94,35.72 14.17,36.59 12.39,37.45 10.44,37.70 8.48,37.95 6.55,37.56 4.61,37.17 2.90,36.19 1.19,35.20 -0.10,33.72 -1.40,32.24 -2.17,30.42 -2.93,28.61 -3.08,26.64 -3.22,24.67 -2.73,22.76 -2.24,20.85 -1.16,19.20 -0.08,17.55 1.45,16.32 3.00,15.10 4.86,14.44 6.72,13.77 8.69,13.73 10.66,13.70 12.54,14.29 14.42,14.89 16.01,16.05 17.61,17.22 18.74,18.83 19.88,20.44 20.44,22.33 21.01,24.22 20.94,26.19 20.86,28.16 20.17,30.01 19.47,31.85 18.22,33.38 16.98,34.91 15.30,35.96 13.63,37.00 11.72,37.46 9.80,37.92 7.83,37.75 5.87,37.57 4.06,36.77 2.26,35.98 0.80,34.65 -0.65,33.32 -1.60,31.59 -2.56,29.87 -2.56,29.87 -2.56,29.87 -2.89,28.10 -3.22,26.32 -4.39,22.17 -5.57,18.03 -6.65,13.05 -7.73,8.07 -8.41,5.98 -9.10,3.90 -9.44,2.75 -9.77,1.60 -9.82,0.41 -9.87,-0.77 -9.64,-1.94 -9.40,-3.11 -8.89,-4.19 -8.38,-5.27 -7.63,-6.20 -6.87,-7.13 -5.92,-7.85 -4.97,-8.56 -3.87,-9.04 -2.77,-9.51 -1.59,-9.70 -0.41,-9.89 0.77,-9.80 1.96,-9.71 3.09,-9.33 4.22,-8.95 5.23,-8.32 6.25,-7.68 7.07,-6.82 7.90,-5.96 8.50,-4.93 9.10,-3.90 9.10,-3.90 L 9.10,-3.90 Z"></path></g></svg>